<svg xmlns="http://www.w3.org/2000/svg" viewBox="0 0 64 64"><rect width="64" height="64" rx="16" fill="#0c6852"/><defs><g id="p" fill="#fdfdfd"><circle r="1.18"/><path d="M-2.05 3.35v-.48A2.05 2.05 0 0 1 0 .82a2.05 2.05 0 0 1 2.05 2.05v.48z"/></g><circle id="o" r="1.7" fill="none" stroke="#fdfdfd" stroke-width=".72"/><circle id="d" r=".98" fill="#fdfdfd"/><path id="s" d="m-1.85-1.85 3.7 3.7" fill="none" stroke="#fdfdfd" stroke-width=".68" stroke-linecap="round"/></defs><g fill="none" stroke="#fdfdfd" stroke-width=".72" stroke-linecap="round" stroke-linejoin="round"><rect x="5.25" y="12.9" width="41.25" height="39.6" rx="2.45"/><path d="M13.7 13.1v39.1M21.65 13.1v39.1M29.75 13.1v39.1M37.8 13.1v39.1M5.45 20.85h40.85M5.45 28.85h40.85M5.45 36.7h40.85M5.45 44.35h40.85"/></g><use href="#p" x="17.55" y="16.2"/><use href="#p" x="25.65" y="16.2"/><use href="#p" x="33.75" y="16.2"/><use href="#p" x="41.9" y="16.2"/><use href="#p" x="9.5" y="23.95"/><use href="#p" x="9.5" y="31.8"/><use href="#p" x="9.5" y="39.45"/><use href="#p" x="9.5" y="47.2"/><use href="#s" x="17.65" y="24.85"/><use href="#o" x="25.7" y="24.85"/><use href="#d" x="33.75" y="24.85"/><use href="#o" x="41.9" y="24.85"/><use href="#d" x="17.65" y="32.7"/><use href="#s" x="25.7" y="32.7"/><use href="#o" x="33.75" y="32.7"/><use href="#d" x="41.9" y="32.7"/><use href="#o" x="17.65" y="40.35"/><use href="#d" x="25.7" y="40.35"/><use href="#s" x="33.75" y="40.35"/><use href="#o" x="41.9" y="40.35"/><use href="#d" x="17.65" y="47.95"/><use href="#o" x="25.7" y="47.95"/><use href="#d" x="33.75" y="47.95"/><use href="#s" x="41.9" y="47.95"/><g fill="#fdfdfd"><path d="M50.65 20h7.25c-.08 4.15-1.18 6.1-3.15 7.05v1.35c0 .48.42.83 1.22 1.05v1h-3.4v-1c.8-.22 1.22-.57 1.22-1.05v-1.35c-1.97-.95-3.06-2.9-3.14-7.05z"/><rect x="52.1" y="29.7" width="4.4" height=".8" rx=".35"/></g><g fill="none" stroke="#fdfdfd" stroke-linecap="round" stroke-linejoin="round"><path d="M50.75 21.05h-1.7c.15 2.85 1.35 4.55 3.5 4.9M57.8 21.05h1.7c-.15 2.85-1.35 4.55-3.5 4.9" stroke-width=".78"/><path d="M51.45 18.25l-.95-1.35M54.25 17.7v-2M57.05 18.25l.95-1.35" stroke-width=".78"/><path d="M52.85 34.4h5.8M52.85 38.8h5.8M52.85 43.15h5.8M52.85 47.5h5.8" stroke-width="1.35"/></g><g fill="#fdfdfd" font-family="Arial,Helvetica,sans-serif" font-size="5.9" font-weight="700" text-anchor="middle" dominant-baseline="middle"><text x="48.95" y="35.7">1</text><text x="48.95" y="40.1">2</text><text x="48.95" y="44.45">3</text><text x="48.95" y="48.8">4</text></g></svg>
